<?xml version="1.0" encoding="utf-8"?>
<!-- Generator: Adobe Illustrator 26.2.1, SVG Export Plug-In . SVG Version: 6.00 Build 0)  -->
<svg version="1.1" id="Layer_1" xmlns="http://www.w3.org/2000/svg" xmlns:xlink="http://www.w3.org/1999/xlink" x="0px" y="0px"
	 viewBox="0 0 200 200" style="enable-background:new 0 0 200 200;" xml:space="preserve">
<style type="text/css">
	.st0{fill:url(#SVGID_1_);}
	.st1{fill:url(#SVGID_00000024714535735241098770000013215155231490202527_);}
</style>
<linearGradient id="SVGID_1_" gradientUnits="userSpaceOnUse" x1="127.8588" y1="91.2177" x2="-9.6115" y2="262.576">
	<stop  offset="0.1204" style="stop-color:#F06A22"/>
	<stop  offset="0.618" style="stop-color:#F59842"/>
	<stop  offset="0.6292" style="stop-color:#F59B43"/>
	<stop  offset="0.9831" style="stop-color:#F49440"/>
</linearGradient>
<path class="st0" d="M89.8,96.5c-0.6-0.5-1.2-1.1-1.7-1.8c-1.3-1.7-2.2-3.9-2.1-6.1c0.1-2.3,1.1-4.5,2.6-6.1
	c4.9-5.3,11.5-3.1,16.9-0.2c24.8,13.1,40.7,42.4,21.3,68c-9.9,13.1-26.7,19.2-42.8,17.3c-6.1-0.7-12.1-2.4-17.6-5.2
	c-4.2-2.1-9.7-5.8-8-11.3c1.6-5.3,8-4.9,12.2-3.5c6.5,2.2,12.9,5.2,19.9,5.2c6.7,0,13.5-2.5,18.8-6.6c7-5.4,10.6-13.8,9.3-22.6
	c-0.7-4.7-2.7-9.2-6-12.7c-3.8-4-9.2-6.7-14.1-9.2C95.8,100.1,92.3,98.7,89.8,96.5z"/>
<linearGradient id="SVGID_00000042009178814310485500000012179374271395330693_" gradientUnits="userSpaceOnUse" x1="61.6663" y1="130.9529" x2="165.6459" y2="-42.9766">
	<stop  offset="0.1672" style="stop-color:#F06A22"/>
	<stop  offset="0.618" style="stop-color:#F59842"/>
	<stop  offset="0.6292" style="stop-color:#F59B43"/>
	<stop  offset="0.9831" style="stop-color:#F49440"/>
</linearGradient>
<path style="fill:url(#SVGID_00000042009178814310485500000012179374271395330693_);" d="M126.4,46.1c0,0-50.6,0-50.6,0
	c-1.2,0-2.4,0.8-2.8,2L58.2,88.6c-0.7,1.9,0.7,4,2.8,4c1.1,0,2.1,0,3.2,0c0.5,0,1.8-0.2,2,0.2c0.3,0.4,0.3,1.4,0.4,1.9
	c0.2,0.6,0.3,1.3,0.5,1.9c0.4,1.3,0.9,2.6,1.5,3.8c1.2,2.4,2.7,4.7,4.4,6.8c2.9,3.4,6.3,6.4,9.9,9c1.3,1,1.6,2.9,0.6,4.2l-5.9,7.7
	c-0.5,0.7,4.7,5.3,5.3,5.7c3.8,2.6,9.8,2.7,13.9,0.6c3.2-1.7,4.4-5.3,3.2-8.7c-1.5-4.3-5.8-6.2-9.6-8.1
	C77.2,110.7,65,96.4,70.3,80.7c1.3-3.8,3.6-7.3,6.4-10.2c1.1-1.1,2.2-2.2,3.4-3.1c6.2-5,14.5-5.4,22.2-5.2c4.5,0.1,9.1,0.2,13.6,0.2
	c2.3,0,4.5,0,6.8,0c4.6,0,9.7-2.2,10.6-7.2C134.1,50.8,131,46.1,126.4,46.1z"/>
</svg>
