<svg xmlns="http://www.w3.org/2000/svg" width="24.023" height="21.935" viewBox="0 0 24.023 21.935">
  <g id="Group_81" data-name="Group 81" transform="translate(-347.873 -58.727)">
    <g id="Group_80" data-name="Group 80">
      <g id="Group_79" data-name="Group 79">
        <g id="Group_78" data-name="Group 78">
          <g id="Group_77" data-name="Group 77">
            <path id="Path_179" data-name="Path 179" d="M10599.23,2878.855c.077-.484.127-.974.239-1.451a7.254,7.254,0,0,1,2.944-4.551,5.7,5.7,0,0,1,3.738-.962,7.451,7.451,0,0,1,4.9,2.34,1.327,1.327,0,0,1,.135.19c.48-.406.895-.8,1.353-1.134a6.951,6.951,0,0,1,5.036-1.364,5.7,5.7,0,0,1,3.991,2.342,8.557,8.557,0,0,1,1.53,6.884,11.988,11.988,0,0,1-2,4.729,21.872,21.872,0,0,1-6.17,5.854c-1.033.685-2.124,1.287-3.187,1.928a.89.89,0,0,1-.953.019,33.854,33.854,0,0,1-5.9-3.969,18.307,18.307,0,0,1-4.132-4.877,11.158,11.158,0,0,1-1.474-4.555c-.007-.068-.03-.135-.044-.2Zm1.6.5a8.554,8.554,0,0,0,.582,3.172,14.249,14.249,0,0,0,3.684,5.2,29.822,29.822,0,0,0,5.989,4.291.271.271,0,0,0,.318,0c.832-.512,1.685-.991,2.5-1.533a21.717,21.717,0,0,0,5.64-5.175,10.025,10.025,0,0,0,2.085-5.241,7.012,7.012,0,0,0-1.2-4.649,4.221,4.221,0,0,0-2.61-1.821,5.314,5.314,0,0,0-4.035.776,6.476,6.476,0,0,0-1.845,1.747.8.8,0,0,1-1.215.207,1.763,1.763,0,0,1-.254-.306,6.087,6.087,0,0,0-3.56-2.394,4.4,4.4,0,0,0-4.913,1.872A7.1,7.1,0,0,0,10600.831,2879.359Z" transform="translate(-10251.357 -2813.146)" fill="#d4d4d4"/>
            <path id="Path_180" data-name="Path 180" d="M2715.417-376.917c.833-.417,4.417-2.333,4.417-2.333l4.917,1.583,1.167,1.917,2.333-2.333,2.5-.833,1.75-.333,2.417.333s.833,2.333,1.083,2.75a35.778,35.778,0,0,1,.667,4.417l-1.083,4.583-6.5,6.083-3.167,2.167-6.667-4.417-3.833-6L2714-373.667Z" transform="translate(-2366 439)" fill="#d4d4d4"/>
          </g>
        </g>
      </g>
    </g>
  </g>
</svg>
