<svg xmlns="http://www.w3.org/2000/svg" width="21.868" height="21.952" viewBox="0 0 21.868 21.952">
  <g id="Group_79" data-name="Group 79" transform="translate(-32.066 -308.341)">
    <g id="Group_76" data-name="Group 76" transform="translate(625.712 218.569)">
      <path id="Path_241" data-name="Path 241" d="M-581.854,192.574a39.519,39.519,0,0,1-3.181,3.148,5,5,0,0,1-5.679.6,5.074,5.074,0,0,1-2.932-4.882,4.851,4.851,0,0,1,1.413-3.453c1.954-1.99,3.915-3.974,5.917-5.916a5.282,5.282,0,0,1,7.308.083,1.331,1.331,0,0,1,.078,1.9,1.326,1.326,0,0,1-1.895.037,2.652,2.652,0,0,0-3.882.11c-1.827,1.824-3.659,3.643-5.474,5.479a2.642,2.642,0,0,0,1.073,4.447,2.557,2.557,0,0,0,2.615-.634c.409-.382.8-.787,1.19-1.185.089-.09.166-.176.317-.119A6.988,6.988,0,0,0-581.854,192.574Z" transform="translate(0 -85.218)" fill="#010101"/>
      <path id="Path_242" data-name="Path 242" d="M-481.344,94.17c.711-.71,1.35-1.355,2-1.992a10.609,10.609,0,0,1,1.552-1.431,5.109,5.109,0,0,1,5.555-.289,5.083,5.083,0,0,1,2.767,4.859,4.915,4.915,0,0,1-1.451,3.439c-1.929,1.956-3.861,3.911-5.829,5.827a5.279,5.279,0,0,1-7.331-.017,1.331,1.331,0,0,1-.105-1.916,1.331,1.331,0,0,1,1.918-.021,2.64,2.64,0,0,0,3.792-.061q2.77-2.751,5.52-5.521a2.64,2.64,0,0,0-.729-4.352,2.537,2.537,0,0,0-2.885.473c-.441.392-.844.827-1.26,1.246-.085.086-.158.148-.293.1A6.693,6.693,0,0,0-481.344,94.17Z" transform="translate(-102.307)" fill="#010101"/>
    </g>
  </g>
</svg>
