<svg xmlns="http://www.w3.org/2000/svg" width="47" height="47" viewBox="0 0 47 47">
  <g id="Group_79" data-name="Group 79" transform="translate(-251 -772)">
    <g id="Ellipse_33" data-name="Ellipse 33" transform="translate(251 772)" fill="none" stroke="#9a9a9a" stroke-width="0.6">
      <circle cx="23.5" cy="23.5" r="23.5" stroke="none"/>
      <circle cx="23.5" cy="23.5" r="23.2" fill="none"/>
    </g>
    <path id="Path_232" data-name="Path 232" d="M7564.436,601.48c.066.017.132.032.2.051a.966.966,0,0,1,.486,1.55,2.143,2.143,0,0,1-.15.16q-2.809,2.81-5.621,5.619a1.3,1.3,0,0,1-.165.116c.082.068.13.1.171.144q2.827,2.825,5.652,5.65a.977.977,0,0,1,.313.94.966.966,0,0,1-1.539.566,1.758,1.758,0,0,1-.173-.157q-2.81-2.81-5.62-5.62a1.868,1.868,0,0,1-.121-.149c-.061.058-.1.1-.142.136q-2.831,2.83-5.661,5.663a.984.984,0,0,1-1.026.285.917.917,0,0,1-.633-.619c-.016-.045-.033-.09-.05-.135v-.322a1.478,1.478,0,0,1,.459-.711q2.771-2.763,5.537-5.532a1.32,1.32,0,0,1,.171-.117c-.088-.07-.138-.1-.179-.143q-2.763-2.761-5.526-5.522a1.517,1.517,0,0,1-.463-.71V602.3a1.013,1.013,0,0,1,.462-.657,3.022,3.022,0,0,1,.445-.162h.117a1.446,1.446,0,0,1,.846.5q2.747,2.759,5.5,5.508c.037.037.076.073.149.141a.963.963,0,0,1,.1-.15q2.746-2.75,5.492-5.5a1.445,1.445,0,0,1,.845-.5Z" transform="translate(-7283.349 187.52)"/>
  </g>
</svg>
