<svg xmlns="http://www.w3.org/2000/svg" width="22.853" height="23.773" viewBox="0 0 22.853 23.773">
  <g id="Settings" transform="translate(0.609 0.5)">
    <path id="Path_104" data-name="Path 104" d="M270.675,14.233a2.847,2.847,0,1,0-2.847-2.847A2.855,2.855,0,0,0,270.675,14.233Zm-5.836-9.109a8.027,8.027,0,0,1,3.416-1.85L269.394,0h2.847l1.139,3.274a9.939,9.939,0,0,1,3.416,1.85l3.416-.712,1.423,2.562-2.277,2.562a8.116,8.116,0,0,1,.142,1.85c0,.569-.142,1.281-.142,1.85l2.277,2.562-1.423,2.562-3.416-.712a8.027,8.027,0,0,1-3.416,1.85l-1.139,3.274h-2.847L268.255,19.5a9.939,9.939,0,0,1-3.416-1.85l-3.416.712L260,15.8l2.277-2.562a8.116,8.116,0,0,1-.142-1.85c0-.569.142-1.281.142-1.85L260,6.974l1.423-2.562Z" transform="translate(-260)" fill="none" stroke="#000" stroke-width="1" fill-rule="evenodd"/>
  </g>
</svg>
