<svg xmlns="http://www.w3.org/2000/svg" width="347" height="55" viewBox="0 0 347 55">
  <g id="Group_74" data-name="Group 74" transform="translate(-22 -540)">
    <path id="Rectangle_100" data-name="Rectangle 100" d="M17,0H72a0,0,0,0,1,0,0V55a0,0,0,0,1,0,0H0a0,0,0,0,1,0,0V17A17,17,0,0,1,17,0Z" transform="translate(22 540)" fill="#d42e1f"/>
    <rect id="Rectangle_101" data-name="Rectangle 101" width="220" height="55" transform="translate(94 540)" fill="#ececec"/>
    <path id="Rectangle_106" data-name="Rectangle 106" d="M0,0H55a0,0,0,0,1,0,0V37A18,18,0,0,1,37,55H0a0,0,0,0,1,0,0V0A0,0,0,0,1,0,0Z" transform="translate(314 540)" fill="#e3e3e3"/>
  </g>
</svg>
