<svg xmlns="http://www.w3.org/2000/svg" width="119" height="114.051" viewBox="0 0 119 114.051">
  <g id="Group_77" data-name="Group 77" transform="translate(-135.5 -364.546)">
    <text id="_5howApp" data-name="5howApp" transform="translate(135.5 471.597)" fill="#2d2d2d" font-size="28" font-family="SegoeUI, Segoe UI"><tspan x="0" y="0">5howApp</tspan></text>
    <path id="Path_60" data-name="Path 60" d="M1057.318,1624.07v38.971a2.338,2.338,0,0,1-2.485,1.464q-29.011-.027-58.022-.013c-1.782,0-2.437-.661-2.437-2.453q0-18.593,0-37.186v-.764h62.085C1056.746,1624.089,1057.032,1624.076,1057.318,1624.07Zm-41.577,32.07h.013c0,.082-.009.164-.015.245-.144,2.047,1.025,2.926,2.965,2.224,2.192-.794,4.385-1.583,6.568-2.4a1.541,1.541,0,0,1,1.17.011c2.28.85,4.564,1.689,6.859,2.5a1.9,1.9,0,0,0,2.675-2.052c-.166-2.452-.355-4.9-.494-7.355a1.547,1.547,0,0,1,.324-.975c1.566-1.921,3.172-3.808,4.753-5.717a1.782,1.782,0,0,0,.193-2.36,2.79,2.79,0,0,0-1.231-.832c-2.33-.768-4.677-1.487-7.026-2.192a1.91,1.91,0,0,1-1.14-.831c-1.221-1.867-2.477-3.712-3.724-5.562-1.057-1.566-2.523-1.558-3.587.021-1.258,1.867-2.495,3.75-3.781,5.6a2.045,2.045,0,0,1-.981.724c-2.333.759-4.685,1.46-7.026,2.194-1.76.552-2.175,1.984-.993,3.4,1.533,1.842,3.065,3.685,4.623,5.506a1.385,1.385,0,0,1,.342,1.11C1016.053,1651.646,1015.9,1653.893,1015.742,1656.14Z" transform="translate(-830.846 -1237.768)" fill="rgba(254,118,7,0.92)"/>
    <path id="Path_61" data-name="Path 61" d="M1057.314,1581.458c-.244.014-.488.041-.733.041q-30.7,0-61.4,0h-.77c-.017-.194-.043-.351-.043-.509,0-2.4-.007-4.793,0-7.191a1.878,1.878,0,0,1,2.034-2.09c3.913-.015,7.826-.006,11.739,0,.138,0,.276.028.475.049,0,.778-.007,1.53,0,2.282a1.868,1.868,0,0,0,1.837,2.03,1.888,1.888,0,0,0,1.95-1.995c.023-.755,0-1.511,0-2.318h26.859c0,.788-.02,1.561,0,2.333a1.887,1.887,0,0,0,1.841,1.98,1.85,1.85,0,0,0,1.939-1.8c.02-.409.007-.819.008-1.229s0-.815,0-1.3c.266-.014.5-.037.735-.037,3.667,0,7.334.027,11-.018a2.356,2.356,0,0,1,2.513,1.411Z" transform="translate(-830.841 -1198.968)" fill="rgba(254,118,7,0.92)"/>
    <path id="Path_62" data-name="Path 62" d="M1080.86,1685.4c.114-1.654.163-3.211.345-4.752a3.806,3.806,0,0,0-1.01-3.364c-1.129-1.178-2.117-2.492-3.226-3.818.25-.093.444-.176.645-.238,1.62-.5,3.237-1.015,4.863-1.5a2.823,2.823,0,0,0,1.629-1.211c.938-1.433,1.907-2.846,2.919-4.351.614.912,1.172,1.758,1.748,2.593,2.168,3.148,1.152,2.411,4.829,3.587,1.126.36,2.256.706,3.452,1.08-.117.169-.193.3-.289.416-1.1,1.32-2.195,2.648-3.316,3.951a2.469,2.469,0,0,0-.655,1.908c.126,1.53.219,3.062.323,4.594.023.342.037.685.06,1.1-1.7-.616-3.336-1.183-4.952-1.809a3.124,3.124,0,0,0-2.376-.01C1084.23,1684.2,1082.592,1684.769,1080.86,1685.4Z" transform="translate(-892.024 -1268.949)" fill="rgba(254,118,7,0.92)"/>
    <path id="Path_63" data-name="Path 63" d="M1053.137,1544.534h-3.764c0-.967-.064-1.908.019-2.835a1.826,1.826,0,0,1,1.811-1.533,1.877,1.877,0,0,1,1.863,1.476,2.338,2.338,0,0,1,.069.485C1053.141,1542.9,1053.137,1543.679,1053.137,1544.534Z" transform="translate(-871.566 -1175.62)" fill="rgba(254,118,7,0.92)"/>
    <path id="Path_64" data-name="Path 64" d="M1167.624,1544.521c0-.934-.067-1.835.018-2.722a1.823,1.823,0,0,1,1.964-1.631,1.88,1.88,0,0,1,1.765,1.858c.021.736.007,1.473.005,2.209a2.788,2.788,0,0,1-.033.285Z" transform="translate(-959.155 -1175.618)" fill="rgba(254,118,7,0.92)"/>
  </g>
</svg>
