<svg xmlns="http://www.w3.org/2000/svg" width="347" height="55" viewBox="0 0 347 55">
  <g id="Group_75" data-name="Group 75" transform="translate(-22 -610)">
    <path id="Rectangle_102" data-name="Rectangle 102" d="M18,0H72a0,0,0,0,1,0,0V55a0,0,0,0,1,0,0H0a0,0,0,0,1,0,0V18A18,18,0,0,1,18,0Z" transform="translate(22 610)" fill="#00b141"/>
    <rect id="Rectangle_103" data-name="Rectangle 103" width="224" height="55" transform="translate(94 610)" fill="#ececec"/>
    <path id="Rectangle_107" data-name="Rectangle 107" d="M0,0H55a0,0,0,0,1,0,0V36A19,19,0,0,1,36,55H0a0,0,0,0,1,0,0V0A0,0,0,0,1,0,0Z" transform="translate(314 610)" fill="#e3e3e3"/>
  </g>
</svg>
