<svg xmlns="http://www.w3.org/2000/svg" width="25.62" height="26.23" viewBox="0 0 25.62 26.23">
  <g id="Group_4" data-name="Group 4" transform="translate(-49.793 -122.552)">
    <g id="Group_1" data-name="Group 1">
      <g id="Group_3" data-name="Group 3" transform="translate(0 0.917)">
        <path id="Path_92" data-name="Path 92" d="M1019.993,1624.07v15.862a.952.952,0,0,1-1.012.6q-11.808-.011-23.615-.005c-.725,0-.992-.269-.992-1q0-7.567,0-15.135v-.311h25.269C1019.76,1624.078,1019.877,1624.072,1019.993,1624.07Zm-16.922,13.053h.005c0,.033,0,.067-.006.1-.059.833.417,1.191,1.207.905.892-.323,1.785-.644,2.673-.977a.627.627,0,0,1,.476,0c.928.346,1.858.688,2.792,1.017a.773.773,0,0,0,1.089-.835c-.068-1-.145-2-.2-2.994a.629.629,0,0,1,.132-.4c.637-.782,1.291-1.55,1.935-2.327a.725.725,0,0,0,.078-.961,1.134,1.134,0,0,0-.5-.339c-.948-.312-1.9-.605-2.86-.892a.777.777,0,0,1-.464-.338c-.5-.76-1.008-1.511-1.516-2.264a.8.8,0,0,0-1.46.008c-.512.76-1.015,1.526-1.539,2.279a.832.832,0,0,1-.4.295c-.949.309-1.907.594-2.86.893a.79.79,0,0,0-.4,1.386c.624.75,1.247,1.5,1.881,2.241a.564.564,0,0,1,.139.452C1003.2,1635.293,1003.136,1636.208,1003.071,1637.122Z" transform="translate(-944.581 -1492.662)" fill="#fe801a"/>
        <path id="Path_94" data-name="Path 94" d="M1078.553,1673.994c.046-.673.066-1.307.14-1.934a1.548,1.548,0,0,0-.411-1.369c-.459-.479-.862-1.014-1.313-1.554.1-.038.181-.072.262-.1.659-.205,1.318-.413,1.979-.61a1.149,1.149,0,0,0,.663-.493c.382-.583.776-1.158,1.188-1.771.25.371.477.716.712,1.055.882,1.281.469.981,1.965,1.46.458.146.918.287,1.4.439-.048.069-.078.122-.117.169-.448.537-.893,1.078-1.35,1.608a1,1,0,0,0-.266.776c.051.623.089,1.247.131,1.87.009.139.015.279.024.447-.691-.251-1.358-.482-2.016-.736a1.273,1.273,0,0,0-.967,0C1079.924,1673.5,1079.258,1673.738,1078.553,1673.994Z" transform="translate(-1018.459 -1530.316)" fill="#fe801a"/>
      </g>
      <path id="Path_93" data-name="Path 93" d="M1019.987,1575.664c-.1.006-.2.016-.3.017h-25.3c-.007-.079-.017-.143-.017-.207,0-.975,0-1.951,0-2.927a.765.765,0,0,1,.828-.851c1.593-.006,3.185,0,4.778,0,.056,0,.112.011.193.02,0,.316,0,.623,0,.929a.76.76,0,0,0,.748.826.769.769,0,0,0,.794-.812c.009-.307,0-.615,0-.943h10.932c0,.321-.008.635,0,.949a.768.768,0,0,0,.749.806.753.753,0,0,0,.789-.732c.008-.166,0-.333,0-.5s0-.332,0-.528c.108-.006.2-.015.3-.015,1.492,0,2.985.011,4.477-.008a.959.959,0,0,1,1.023.574Z" transform="translate(-944.575 -1445.357)" fill="#fe801a"/>
      <g id="Group_2" data-name="Group 2">
        <path id="Path_95" data-name="Path 95" d="M1050.891,1541.944h-1.532c0-.394-.026-.776.007-1.154a.743.743,0,0,1,.737-.624.764.764,0,0,1,.758.6.952.952,0,0,1,.028.2C1050.892,1541.28,1050.891,1541.6,1050.891,1541.944Z" transform="translate(-993.754 -1417.613)" fill="#fe801a"/>
        <path id="Path_96" data-name="Path 96" d="M1167.609,1541.937c0-.38-.027-.747.007-1.108a.742.742,0,0,1,.8-.664.765.765,0,0,1,.718.756c.009.3,0,.6,0,.9a1.1,1.1,0,0,1-.013.116Z" transform="translate(-1099.524 -1417.612)" fill="#fe801a"/>
      </g>
    </g>
  </g>
</svg>
