<svg xmlns="http://www.w3.org/2000/svg" width="19.126" height="22.799" viewBox="0 0 19.126 22.799">
  <g id="Group_80" data-name="Group 80" transform="translate(-343.848 -61.628)">
    <path id="Path_29" data-name="Path 29" d="M11422.405,565.293a1.911,1.911,0,0,1,1.389,2.468.681.681,0,0,0,.146.079,5.639,5.639,0,0,1,4.036,5.695,12.713,12.713,0,0,0,.563,4.074,5.445,5.445,0,0,0,2.042,2.78c.145.1.29.206.428.318a1.3,1.3,0,0,1,.164,2.077,3.262,3.262,0,0,1-1.942,1c-1.31.228-2.634.371-3.953.544-.2.026-.408.022-.646.034a2.72,2.72,0,0,1-1.151,3.283,2.5,2.5,0,0,1-2.854,0,2.693,2.693,0,0,1-1.159-3.254c-.933-.083-1.837-.114-2.724-.256a22.191,22.191,0,0,1-2.674-.616,2.247,2.247,0,0,1-1.372-1.065,1.2,1.2,0,0,1,.262-1.636,2.111,2.111,0,0,1,.276-.223,6.26,6.26,0,0,0,2.763-4.981c.108-1.045.057-2.111.221-3.144a5.428,5.428,0,0,1,3.9-4.616c.057-.018.108-.047.185-.08a5.081,5.081,0,0,1-.065-.686,1.884,1.884,0,0,1,1.457-1.8Zm-.379,18.137c1.11,0,2.221.019,3.332-.008a17.735,17.735,0,0,0,1.856-.165,7.278,7.278,0,0,0,2.969-.831c.646-.4.664-.729.056-1.143a6.718,6.718,0,0,1-2.784-4.134,20.805,20.805,0,0,1-.425-4.143,4.549,4.549,0,0,0-3.588-4.358.845.845,0,0,0-.535.064,1.816,1.816,0,0,1-1.705.017.868.868,0,0,0-.534-.068,4.332,4.332,0,0,0-3.5,3.688c-.2,1.147-.151,2.332-.288,3.492a7.13,7.13,0,0,1-3.093,5.5c-.513.338-.519.692.021,1a6.06,6.06,0,0,0,1.59.647A26.289,26.289,0,0,0,11422.026,583.43Zm1.841,1.875c-.011-.091-.019-.194-.034-.3-.083-.549-.151-.6-.705-.6-.771,0-1.542.015-2.312-.009a.427.427,0,0,0-.5.369,1.789,1.789,0,0,0,.511,1.909,1.726,1.726,0,0,0,1.985.3A1.756,1.756,0,0,0,11423.867,585.3Zm-2.72-18.189a.9.9,0,1,0,.891-.914A.907.907,0,0,0,11421.147,567.115Z" transform="translate(-11068.639 -503.665)"/>
    <path id="Path_30" data-name="Path 30" d="M11459.927,570.793a.9.9,0,1,1,1.8-.024" transform="translate(-11102.123 -506.902)" fill="#fff"/>
  </g>
</svg>
