<?xml version="1.0" encoding="utf-8"?>
<!-- Generator: Adobe Illustrator 25.4.1, SVG Export Plug-In . SVG Version: 6.00 Build 0)  -->
<svg version="1.1" id="Layer_1" xmlns="http://www.w3.org/2000/svg" xmlns:xlink="http://www.w3.org/1999/xlink" x="0px" y="0px"
	 viewBox="0 0 29.1 29.1" style="enable-background:new 0 0 29.1 29.1;" xml:space="preserve">
<g id="Settings" transform="translate(0.609 0.5)">
	<g id="Path_104">
		<path d="M15.4,25.8h-3.6l-1.2-3.4c-1.1-0.4-2.2-1-3.2-1.7L4,21.4l-1.8-3.2l2.4-2.6c-0.1-0.6-0.1-1.1-0.1-1.7c0-0.3,0-0.6,0.1-1
			c0-0.2,0.1-0.5,0.1-0.7L2.2,9.6L4,6.4l3.5,0.7c0.9-0.8,2-1.4,3.2-1.7L11.9,2h3.6l1.2,3.4c1.1,0.4,2.2,1,3.2,1.7l3.5-0.7l1.8,3.2
			l-2.4,2.6c0.1,0.6,0.1,1.1,0.1,1.7c0,0.3,0,0.6-0.1,1c0,0.2-0.1,0.5-0.1,0.7l2.4,2.7l-1.8,3.2l-3.5-0.7c-0.9,0.8-2,1.4-3.2,1.7
			L15.4,25.8z M12.6,24.8h2.1l1.1-3.2l0.3-0.1c1.2-0.3,2.3-0.9,3.2-1.7l0.2-0.2l3.3,0.7l1.1-1.9l-2.2-2.4v-0.2c0-0.3,0-0.6,0.1-1
			c0-0.3,0.1-0.6,0.1-0.9c0-0.6,0-1.2-0.1-1.8l0-0.2l2.2-2.5l-1.1-1.9l-3.3,0.7L19.3,8c-1-0.8-2.1-1.4-3.2-1.8l-0.2-0.1L14.7,3h-2.1
			l-1.1,3.2l-0.3,0.1C10,6.6,8.9,7.2,8,8L7.8,8.2L4.5,7.5L3.5,9.4l2.2,2.4V12c0,0.3,0,0.6-0.1,1c0,0.3-0.1,0.6-0.1,0.9
			c0,0.6,0,1.2,0.1,1.8l0,0.2l-2.2,2.5l1.1,1.9l3.3-0.7L8,19.8c1,0.8,2.1,1.4,3.2,1.8l0.2,0.1L12.6,24.8z M13.5,17.2L13.5,17.2
			c-1.8,0-3.3-1.5-3.3-3.3c0-1.8,1.5-3.3,3.3-3.3c1.8,0,3.3,1.5,3.3,3.3S15.4,17.2,13.5,17.2z M13.5,11.5c-1.3,0-2.3,1.1-2.3,2.3
			c0,1.3,1.1,2.3,2.3,2.3c1.3,0,2.3-1.1,2.3-2.3C15.9,12.6,14.8,11.5,13.5,11.5z"/>
	</g>
</g>
</svg>
